<svg width="43" height="43" viewBox="0 0 43 43" fill="none" xmlns="http://www.w3.org/2000/svg">
<circle cx="21.5" cy="21.5" r="21.5" fill="black"/>
<path d="M18.585 34.524C18.503 34.934 18.257 35.2893 17.847 35.59C17.4643 35.8633 16.9177 36 16.207 36C15.6057 36 15.1273 35.836 14.772 35.508C14.444 35.18 14.2663 34.8383 14.239 34.483C14.403 33.335 14.485 31.613 14.485 29.317C14.485 27.9503 14.403 25.8457 14.239 23.003C14.0477 20.3243 13.952 17.9463 13.952 15.869C13.952 14.7483 14.0067 13.6003 14.116 12.425C14.116 12.0423 14.3347 11.6323 14.772 11.195C15.2367 10.7577 15.8653 10.4843 16.658 10.375C19.2547 10.1017 22.439 9.965 26.211 9.965H27.523C28.507 9.965 29.4637 10.1427 30.393 10.498C31.3497 10.8533 31.828 11.4683 31.828 12.343C31.828 12.917 31.6913 13.368 31.418 13.696C31.1447 14.024 30.639 14.188 29.901 14.188C29.5457 14.188 29.1357 14.1607 28.671 14.106C28.2063 14.0513 27.8783 14.0103 27.687 13.983C26.6483 13.819 25.842 13.737 25.268 13.737C22.0973 13.737 19.7057 13.9557 18.093 14.393C18.093 15.295 18.1203 16.7573 18.175 18.78L18.216 21.404C19.6373 21.404 20.9083 21.3493 22.029 21.24C23.1497 21.1033 23.792 21.0213 23.956 20.994C25.3773 20.83 26.3203 20.748 26.785 20.748C27.441 20.748 27.9877 20.8983 28.425 21.199C28.8897 21.4723 29.122 21.9097 29.122 22.511C29.122 23.8777 28.1653 24.561 26.252 24.561C25.7873 24.561 25.3773 24.5747 25.022 24.602C24.6667 24.6293 24.366 24.6567 24.12 24.684C23.136 24.7933 22.357 24.848 21.783 24.848C20.5257 24.848 19.4597 24.889 18.585 24.971C18.585 25.9823 18.626 27.0483 18.708 28.169C18.708 28.5243 18.7217 29.071 18.749 29.809C18.8037 30.547 18.831 31.2167 18.831 31.818C18.831 32.3373 18.8173 32.8157 18.79 33.253C18.7627 33.6903 18.6943 34.114 18.585 34.524Z" fill="#31F691"/>
</svg>
